<svg width="85" height="111" viewBox="0 0 85 111" fill="none" xmlns="http://www.w3.org/2000/svg">
<path d="M42.5 0.499939C19.0654 0.499939 0 18.3711 0 40.3376C0 67.5987 38.0333 107.62 39.6526 109.31C41.1736 110.898 43.8291 110.895 45.3474 109.31C46.9667 107.62 85 67.5987 85 40.3376C84.9995 18.3711 65.9344 0.499939 42.5 0.499939ZM42.5 60.381C30.7095 60.381 21.1174 51.3896 21.1174 40.3376C21.1174 29.2856 30.7097 20.2944 42.5 20.2944C54.2903 20.2944 63.8824 29.2858 63.8824 40.3378C63.8824 51.3898 54.2903 60.381 42.5 60.381Z" fill="black"/>
</svg>
