<svg width="85" height="111" viewBox="0 0 85 111" fill="none" xmlns="http://www.w3.org/2000/svg">
<path d="M78.1884 0.525079C59.7243 2.07928 46.0991 10.8816 38.1564 23.6069C32.8334 29.9801 22.2002 49.4378 18.3332 59.6237C11.3214 72.2902 5.20701 87.3609 0.422022 100.947C-2.50297 109.255 10.6306 114.675 13.5724 106.33C17.1509 96.1651 21.4741 85.1755 26.3596 74.9772C31.2079 85.3408 36.1344 95.6707 41.424 105.837C45.5238 113.729 57.8605 106.808 53.7756 98.9427C48.3296 88.4777 43.271 77.8455 38.2868 67.1777C38.3501 66.9714 38.4301 66.7705 38.4971 66.566C39.3275 66.7918 40.2436 66.8612 41.2527 66.678C48.8789 65.3106 56.5051 63.9466 64.1369 62.5791C67.397 61.9941 68.6463 58.587 68.1324 55.8591C66.5908 47.6845 61.7146 41.9976 55.6449 36.6166C54.7438 33.6896 51.7387 31.1004 48.4041 28.5273C55.1645 18.0889 66.2017 12.4234 80.5678 11.2142C87.8998 10.6007 85.4571 -0.0848637 78.1884 0.525079ZM50.4019 46.9892C52.288 48.8634 53.8929 50.8355 55.105 53.1188C51.4148 53.7803 47.7227 54.4401 44.0325 55.1016C45.8943 52.2386 48.0373 49.5356 50.4019 46.9892Z" fill="#010002"/>
<path d="M66.1906 37.6836C71.6147 37.6836 76.0118 33.4839 76.0118 28.3033C76.0118 23.1227 71.6147 18.923 66.1906 18.923C60.7664 18.923 56.3693 23.1227 56.3693 28.3033C56.3693 33.4839 60.7664 37.6836 66.1906 37.6836Z" fill="#010002"/>
</svg>
