<svg width="85" height="111" viewBox="0 0 85 111" fill="none" xmlns="http://www.w3.org/2000/svg">
<path d="M49.2177 72.6098C47.1393 70.733 44.9181 69.2038 42.5952 68.0354C45.6853 64.4003 47.7352 59.308 48.0919 53.6072C52.778 47.6975 58.9206 44.4576 65.5054 44.4576C70.6461 44.4576 75.5818 46.4611 79.7802 50.2507C81.2847 51.6088 83.3535 51.132 84.4027 49.1848C85.4514 47.2384 85.083 44.56 83.5791 43.2028C81.5007 41.3261 79.2789 39.7976 76.956 38.6284C80.3658 34.6173 82.5098 28.8334 82.5098 22.4142C82.5098 10.3302 74.9145 0.499939 65.5781 0.499939C56.2423 0.499939 48.647 10.3302 48.647 22.4142C48.647 28.8074 50.7735 34.5703 54.1599 38.5798C53.6962 38.8106 53.2352 39.0548 52.7786 39.315C50.7008 40.4985 48.7475 41.9539 46.9311 43.6628C44.4259 35.6077 38.3268 29.9069 31.2173 29.9069C21.8815 29.9069 14.2856 39.7372 14.2856 51.8203C14.2856 58.1959 16.4003 63.9428 19.7687 67.9506C10.7629 72.3177 3.46082 81.6973 0.488091 93.6595C-0.497629 97.6262 0.0244138 101.833 1.92063 105.201C3.81684 108.569 6.75066 110.5 9.96981 110.5H38.8534C40.6867 110.5 42.173 108.576 42.173 106.203C42.173 103.83 40.6867 101.906 38.8534 101.906H9.96981C8.89655 101.906 7.91861 101.262 7.28632 100.139C6.65403 99.0161 6.48023 97.6136 6.80838 96.2908C10.0898 83.0864 20.0974 73.8646 31.1446 73.8646C36.2847 73.8646 41.221 75.8681 45.4194 79.6577C46.9233 81.0157 48.9927 80.5382 50.0419 78.5917C51.0906 76.6453 50.7222 73.967 49.2177 72.6098ZM65.5781 9.0939C71.2531 9.0939 75.8698 15.0691 75.8698 22.4142C75.8698 29.7583 71.2531 35.7344 65.5781 35.7344C59.9037 35.7344 55.2864 29.7583 55.2864 22.4142C55.2864 15.0691 59.9037 9.0939 65.5781 9.0939ZM31.2173 38.5C36.8923 38.5 41.509 44.4761 41.509 51.8203C41.509 59.1653 36.8923 65.1405 31.2173 65.1405C25.5423 65.1405 20.9256 59.1653 20.9256 51.8203C20.9256 44.4761 25.5423 38.5 31.2173 38.5ZM85 90.0898C85 92.4626 83.5136 94.3864 81.6797 94.3864H72.5501V106.203C72.5501 108.576 71.0637 110.5 69.2304 110.5C67.3965 110.5 65.9101 108.576 65.9101 106.203V94.3864H56.7805C54.9472 94.3864 53.4608 92.4626 53.4608 90.0898C53.4608 87.7162 54.9472 85.7924 56.7805 85.7924H65.9101V73.9762C65.9101 71.6034 67.3965 69.6797 69.2304 69.6797C71.0637 69.6797 72.5501 71.6034 72.5501 73.9762V85.7924H81.6797C83.5136 85.7924 85 87.7162 85 90.0898Z" fill="black"/>
</svg>
